<svg width="480" height="360" viewBox="0 0 480 360" fill="none" xmlns="http://www.w3.org/2000/svg">
<rect width="480" height="360" rx="28" fill="url(#bg)"/>
<rect x="34" y="34" width="412" height="292" rx="24" fill="#F8FAFC" fill-opacity="0.96"/>
<rect x="60" y="64" width="146" height="44" rx="16" fill="#0F172A"/>
<text x="133" y="91" text-anchor="middle" fill="#E0F2FE" font-family="Arial, sans-serif" font-size="15" font-weight="700">Core Bundle</text>
<rect x="240" y="64" width="154" height="44" rx="16" fill="#E0F2FE"/>
<text x="317" y="91" text-anchor="middle" fill="#0369A1" font-family="Arial, sans-serif" font-size="15" font-weight="700">Async Modules</text>
<path d="M204 86H228" stroke="#64748B" stroke-width="6" stroke-linecap="round"/>
<rect x="64" y="146" width="118" height="74" rx="18" fill="#38BDF8"/>
<text x="123" y="188" text-anchor="middle" fill="white" font-family="Arial, sans-serif" font-size="16" font-weight="700">Charts</text>
<rect x="194" y="146" width="118" height="74" rx="18" fill="#7DD3FC"/>
<text x="253" y="188" text-anchor="middle" fill="#0F172A" font-family="Arial, sans-serif" font-size="16" font-weight="700">Editor</text>
<rect x="324" y="146" width="92" height="74" rx="18" fill="#BAE6FD"/>
<text x="370" y="188" text-anchor="middle" fill="#0F172A" font-family="Arial, sans-serif" font-size="15" font-weight="700">Modal</text>
<path d="M123 228V262" stroke="#38BDF8" stroke-width="5" stroke-linecap="round"/>
<path d="M253 228V262" stroke="#7DD3FC" stroke-width="5" stroke-linecap="round"/>
<path d="M370 228V262" stroke="#BAE6FD" stroke-width="5" stroke-linecap="round"/>
<rect x="88" y="268" width="316" height="34" rx="17" fill="#E2E8F0"/>
<rect x="104" y="279" width="82" height="12" rx="6" fill="#0EA5E9"/>
<rect x="196" y="279" width="58" height="12" rx="6" fill="#94A3B8"/>
<rect x="264" y="279" width="74" height="12" rx="6" fill="#94A3B8"/>
<defs>
<linearGradient id="bg" x1="26" y1="28" x2="450" y2="336" gradientUnits="userSpaceOnUse">
<stop stop-color="#082F49"/>
<stop offset="1" stop-color="#0F172A"/>
</linearGradient>
</defs>
</svg>
