<svg width="1600" height="900" viewBox="0 0 1600 900" fill="none" xmlns="http://www.w3.org/2000/svg">
  <defs>
    <linearGradient id="bg" x1="180" y1="40" x2="1400" y2="860" gradientUnits="userSpaceOnUse">
      <stop stop-color="#0B3257"/>
      <stop offset="0.52" stop-color="#071D33"/>
      <stop offset="1" stop-color="#04111E"/>
    </linearGradient>
    <radialGradient id="glowLeft" cx="0" cy="0" r="1" gradientUnits="userSpaceOnUse" gradientTransform="translate(320 240) rotate(28) scale(480 360)">
      <stop stop-color="#4CC3FF" stop-opacity="0.72"/>
      <stop offset="0.5" stop-color="#1D7BFF" stop-opacity="0.28"/>
      <stop offset="1" stop-color="#1D7BFF" stop-opacity="0"/>
    </radialGradient>
    <radialGradient id="glowBottom" cx="0" cy="0" r="1" gradientUnits="userSpaceOnUse" gradientTransform="translate(620 760) rotate(-8) scale(620 260)">
      <stop stop-color="#2CB9FF" stop-opacity="0.22"/>
      <stop offset="1" stop-color="#2CB9FF" stop-opacity="0"/>
    </radialGradient>
    <linearGradient id="beam" x1="0" y1="0" x2="1" y2="1">
      <stop stop-color="#8AD7FF" stop-opacity="0.22"/>
      <stop offset="1" stop-color="#8AD7FF" stop-opacity="0"/>
    </linearGradient>
    <linearGradient id="mesh" x1="80" y1="160" x2="980" y2="680" gradientUnits="userSpaceOnUse">
      <stop stop-color="#8AD7FF" stop-opacity="0.9"/>
      <stop offset="0.38" stop-color="#3EA4FF" stop-opacity="0.46"/>
      <stop offset="1" stop-color="#0A2740" stop-opacity="0.08"/>
    </linearGradient>
    <linearGradient id="surfaceA" x1="120" y1="420" x2="760" y2="620" gradientUnits="userSpaceOnUse">
      <stop stop-color="#184E80" stop-opacity="0.82"/>
      <stop offset="1" stop-color="#0A1E34" stop-opacity="0.18"/>
    </linearGradient>
    <linearGradient id="surfaceB" x1="240" y1="340" x2="900" y2="680" gradientUnits="userSpaceOnUse">
      <stop stop-color="#6FD6FF" stop-opacity="0.34"/>
      <stop offset="1" stop-color="#17456D" stop-opacity="0.06"/>
    </linearGradient>
    <linearGradient id="floorFade" x1="0" y1="520" x2="0" y2="900" gradientUnits="userSpaceOnUse">
      <stop stop-color="#081729" stop-opacity="0"/>
      <stop offset="1" stop-color="#020812" stop-opacity="0.9"/>
    </linearGradient>
    <linearGradient id="rightShade" x1="990" y1="0" x2="1600" y2="0" gradientUnits="userSpaceOnUse">
      <stop stop-color="#071525" stop-opacity="0"/>
      <stop offset="1" stop-color="#04101B" stop-opacity="0.72"/>
    </linearGradient>
    <pattern id="grid" width="56" height="56" patternUnits="userSpaceOnUse">
      <path d="M56 0H0V56" stroke="#4FB6FF" stroke-opacity="0.14" stroke-width="1"/>
    </pattern>
    <filter id="blurLarge" x="-200" y="-200" width="2000" height="1300" filterUnits="userSpaceOnUse" color-interpolation-filters="sRGB">
      <feGaussianBlur stdDeviation="54"/>
    </filter>
    <filter id="blurSmall" x="-100" y="-100" width="1800" height="1100" filterUnits="userSpaceOnUse" color-interpolation-filters="sRGB">
      <feGaussianBlur stdDeviation="16"/>
    </filter>
  </defs>
  <rect width="1600" height="900" fill="url(#bg)"/>
  <rect width="1600" height="900" fill="url(#glowLeft)"/>
  <rect width="1600" height="900" fill="url(#glowBottom)"/>
  <g opacity="0.75">
    <path d="M0 0H470L860 900H520L0 0Z" fill="url(#beam)"/>
    <path d="M140 0H600L1130 900H860L140 0Z" fill="url(#beam)" opacity="0.46"/>
    <path d="M520 0H820L1320 900H1080L520 0Z" fill="url(#beam)" opacity="0.28"/>
  </g>
  <g filter="url(#blurLarge)" opacity="0.52">
    <circle cx="332" cy="248" r="96" fill="#68CCFF"/>
    <circle cx="744" cy="238" r="74" fill="#1664D8"/>
    <circle cx="468" cy="668" r="116" fill="#1F8FFF"/>
  </g>
  <g opacity="0.9">
    <path d="M0 616L178 454L296 510L446 386L594 444L742 300L940 438L940 900H0V616Z" fill="url(#surfaceA)"/>
    <path d="M0 680L152 582L344 612L508 498L702 564L866 476L1072 622L1072 900H0V680Z" fill="url(#surfaceB)"/>
    <path d="M38 622L178 454L296 510L446 386L594 444L742 300L940 438" stroke="url(#mesh)" stroke-width="2"/>
    <path d="M0 680L152 582L344 612L508 498L702 564L866 476L1072 622" stroke="url(#mesh)" stroke-width="1.4" opacity="0.9"/>
    <path d="M178 454L152 582" stroke="#70D7FF" stroke-opacity="0.38"/>
    <path d="M296 510L344 612" stroke="#70D7FF" stroke-opacity="0.26"/>
    <path d="M446 386L508 498" stroke="#70D7FF" stroke-opacity="0.42"/>
    <path d="M594 444L702 564" stroke="#70D7FF" stroke-opacity="0.28"/>
    <path d="M742 300L866 476" stroke="#70D7FF" stroke-opacity="0.4"/>
    <path d="M940 438L1072 622" stroke="#70D7FF" stroke-opacity="0.2"/>
  </g>
  <g opacity="0.68">
    <path d="M0 900V650L800 500L1600 650V900H0Z" fill="url(#floorFade)"/>
    <path d="M0 650H1600" stroke="#5CC5FF" stroke-opacity="0.18" stroke-width="1.2"/>
    <path d="M800 500L800 900" stroke="#5CC5FF" stroke-opacity="0.1"/>
    <path d="M520 900L800 500" stroke="#5CC5FF" stroke-opacity="0.2"/>
    <path d="M620 900L800 500" stroke="#5CC5FF" stroke-opacity="0.16"/>
    <path d="M720 900L800 500" stroke="#5CC5FF" stroke-opacity="0.12"/>
    <path d="M920 900L800 500" stroke="#5CC5FF" stroke-opacity="0.12"/>
    <path d="M1040 900L800 500" stroke="#5CC5FF" stroke-opacity="0.16"/>
    <path d="M1160 900L800 500" stroke="#5CC5FF" stroke-opacity="0.2"/>
    <path d="M0 706L1600 706" stroke="#5CC5FF" stroke-opacity="0.08"/>
    <path d="M0 768L1600 768" stroke="#5CC5FF" stroke-opacity="0.1"/>
    <path d="M0 838L1600 838" stroke="#5CC5FF" stroke-opacity="0.14"/>
    <rect x="0" y="648" width="1600" height="252" fill="url(#grid)" opacity="0.48"/>
  </g>
  <g opacity="0.9">
    <circle cx="356" cy="280" r="72" stroke="#83DAFF" stroke-opacity="0.28" stroke-width="1.4"/>
    <circle cx="356" cy="280" r="112" stroke="#83DAFF" stroke-opacity="0.14" stroke-width="1.2"/>
    <circle cx="356" cy="280" r="10" fill="#A8EAFF"/>
    <path d="M356 168V204" stroke="#A8EAFF" stroke-opacity="0.42"/>
    <path d="M356 356V392" stroke="#A8EAFF" stroke-opacity="0.42"/>
    <path d="M244 280H280" stroke="#A8EAFF" stroke-opacity="0.42"/>
    <path d="M432 280H468" stroke="#A8EAFF" stroke-opacity="0.42"/>
    <circle cx="690" cy="210" r="18" fill="#7FD9FF" fill-opacity="0.9"/>
    <circle cx="690" cy="210" r="46" stroke="#7FD9FF" stroke-opacity="0.2"/>
    <circle cx="880" cy="340" r="8" fill="#66C8FF" fill-opacity="0.8"/>
    <circle cx="990" cy="248" r="5" fill="#8CDDFF" fill-opacity="0.9"/>
    <circle cx="1128" cy="180" r="4" fill="#8CDDFF" fill-opacity="0.76"/>
    <circle cx="960" cy="514" r="6" fill="#8CDDFF" fill-opacity="0.7"/>
    <circle cx="1198" cy="412" r="7" fill="#66C8FF" fill-opacity="0.6"/>
  </g>
  <g filter="url(#blurSmall)" opacity="0.55">
    <path d="M188 242L540 206L722 254" stroke="#9BE4FF" stroke-width="12" stroke-linecap="round"/>
    <path d="M212 322L468 300L650 350" stroke="#1C77FF" stroke-width="8" stroke-linecap="round"/>
  </g>
  <rect width="1600" height="900" fill="url(#rightShade)"/>
</svg>
